PathFileType	4	(X/Y/Z)	C:\Users\dbl\Desktop\20210112(1)\20210112\bx_y_10_1801.trc
DataRate	CameraRate	NumFrames	NumMarkers	Units	OrigDataRate	OrigDataStartFrame	OrigNumFrames
50.00	50.00	       7	43	mm	50.00	1	       468
Frame#	Time	Top.Head			R.Acromium			L.Acromium			Sternum			R.ASIS			L.ASIS			V.Sacral			R.Thigh.Upper			R.Thigh.Front			R.Thigh.Rear			R.Knee.Lat			R.Knee.Med			R.Shank.Upper			R.Shank.Front			R.Shank.Rear			R.Ankle.Lat			R.Midfoot.Lat			R.Toe.Lat			R.Toe.Tip			R.Toe.Med			R.Ankle.Med			R.Midfoot.Sup			R.Heel			L.Thigh.Upper			L.Thigh.Front			L.Thigh.Rear			L.Knee.Lat			L.Knee.Med			L.Shank.Upper			L.Shank.Front			L.Shank.Rear			L.Ankle.Lat			L.Midfoot.Lat			L.Toe.Lat			L.Toe.Tip			L.Toe.Med			L.Ankle.Med			L.Midfoot.Sup			L.Heel			origin1 front left			origin2 front right			origin 3 back right			origin 4 back leftt			
		X1	Y1	Z1	X2	Y2	Z2	X3	Y3	Z3	X4	Y4	Z4	X5	Y5	Z5	X6	Y6	Z6	X7	Y7	Z7	X8	Y8	Z8	X9	Y9	Z9	X10	Y10	Z10	X11	Y11	Z11	X12	Y12	Z12	X13	Y13	Z13	X14	Y14	Z14	X15	Y15	Z15	X16	Y16	Z16	X17	Y17	Z17	X18	Y18	Z18	X19	Y19	Z19	X20	Y20	Z20	X21	Y21	Z21	X22	Y22	Z22	X23	Y23	Z23	X24	Y24	Z24	X25	Y25	Z25	X26	Y26	Z26	X27	Y27	Z27	X28	Y28	Z28	X29	Y29	Z29	X30	Y30	Z30	X31	Y31	Z31	X32	Y32	Z32	X33	Y33	Z33	X34	Y34	Z34	X35	Y35	Z35	X36	Y36	Z36	X37	Y37	Z37	X38	Y38	Z38	X39	Y39	Z39	X40	Y40	Z40	X41	Y41	Z41	X42	Y42	Z42	X43	Y43	Z43	

1	0.000	-675.44324	102.43490	1855.66211	-685.65778	-72.08745	1557.25122	-698.43158	283.61551	1544.97681	-598.11578	101.89085	1435.95215	-601.77112	-11.97931	1047.46191	-585.50183	211.89330	1066.46033	-797.65625	93.73620	1060.16003	-661.23822	-71.52405	868.11011	-597.40356	-9.50692	800.30066	-708.91840	-54.13077	716.98254	-713.54620	-32.08109	617.16528	-704.06134	76.68690	574.47687	-727.81531	-28.87834	565.66498	-678.83862	15.39405	520.08527	-772.58673	-39.84093	487.01788	-767.08997	-7.75870	206.47142	-663.49493	-68.16189	162.90837	-622.21802	-78.79022	158.75299	-560.32581	-40.86297	163.25406	-603.24170	19.65375	166.45335	-719.12561	76.74593	217.03656	-675.77539	55.29265	157.43115	-796.12061	52.46139	174.09570	-643.31830	275.04575	876.07288	-589.84326	208.23856	813.82678	-689.89404	270.86264	748.91699	-726.64673	248.46535	645.56970	-696.98730	139.62030	573.11365	-732.57977	243.66368	577.52869	-680.07745	202.23401	532.51807	-774.09100	254.87163	503.32867	-771.59528	223.60629	205.05603	-666.05389	298.85477	160.78329	-628.35272	306.18500	161.77441	-560.79254	261.22278	165.67909	-594.69592	222.04192	173.50046	-712.78448	152.26907	216.44119	-675.65723	171.93129	156.95570	-797.15448	173.42905	183.00269	-528.47675	304.41357	146.79608	-518.02905	-72.49312	143.04015	-876.03320	-78.59757	141.50241	-882.66003	296.11053	144.51537	
2	0.020	-675.08478	102.50243	1855.65784	-685.56110	-71.95618	1557.21899	-698.35309	283.71390	1544.95544	-597.99976	101.91846	1436.00488	-601.86426	-11.90575	1047.51050	-585.49933	211.96495	1066.44653	-797.70337	93.76622	1060.13745	-661.27429	-71.46593	868.08105	-597.37762	-9.46735	800.29767	-708.89996	-54.03520	716.95166	-713.49121	-32.12033	617.31000	-704.10284	76.75757	574.38770	-727.82202	-28.78231	565.66980	-678.83478	15.40193	520.07629	-772.50842	-39.78411	487.04657	-767.04016	-7.71326	206.35928	-663.47876	-68.01397	162.87209	-622.23254	-78.79691	158.75020	-560.34229	-40.98422	163.25685	-603.22449	19.62003	166.48572	-719.06134	76.73132	217.02158	-675.82874	55.30332	157.38437	-796.10803	52.48946	174.11061	-643.33380	275.10895	876.05975	-589.90100	208.30763	813.73944	-689.87866	270.93399	748.93317	-726.64124	248.47353	645.58392	-697.02356	139.77950	573.24652	-732.51672	243.71771	577.48816	-680.06696	202.31303	532.50928	-774.11517	254.89090	503.31061	-771.56360	223.60941	205.03722	-666.04150	298.73428	160.80783	-628.34827	306.16269	161.72397	-560.76654	261.19864	165.65701	-594.71759	222.04395	173.52448	-712.75629	152.25752	216.46468	-675.68701	171.97115	156.99376	-797.15186	173.44521	183.01999	-528.48114	304.39590	146.79807	-518.01740	-72.46192	143.00647	-876.04633	-78.59391	141.49411	-882.64606	296.10468	144.54147	
3	0.040	-674.68915	102.56838	1855.65222	-685.45648	-71.83446	1557.20654	-698.26715	283.80261	1544.93958	-597.87854	101.95889	1436.05261	-601.95563	-11.82290	1047.56592	-585.53741	212.03819	1066.42188	-797.75879	93.81117	1060.12366	-661.31451	-71.39970	868.05872	-597.36676	-9.41633	800.29492	-708.88837	-53.96645	716.93945	-713.44647	-32.13354	617.41724	-704.13531	76.82291	574.30798	-727.83435	-28.69386	565.66522	-678.82550	15.41546	520.07849	-772.43842	-39.73439	487.07242	-766.99799	-7.67397	206.26820	-663.47998	-67.90337	162.84808	-622.24713	-78.79456	158.74828	-560.34833	-41.07882	163.26405	-603.20966	19.59385	166.50984	-719.01038	76.72273	217.00682	-675.87750	55.30819	157.34377	-796.09711	52.50547	174.11783	-643.35333	275.17209	876.04352	-589.95654	208.37386	813.68268	-689.87799	271.00870	748.94513	-726.63544	248.49013	645.59583	-697.03363	139.89586	573.37378	-732.44165	243.78995	577.44122	-680.05597	202.38251	532.50171	-774.12195	254.92441	503.30060	-771.53766	223.60741	205.02248	-666.02246	298.63028	160.82347	-628.34808	306.14203	161.67906	-560.74707	261.18103	165.63269	-594.73480	222.04393	173.54686	-712.73682	152.24516	216.48621	-675.71161	172.00410	157.02216	-797.15259	173.45934	183.02678	-528.48615	304.38538	146.79166	-518.00714	-72.43118	142.97018	-876.05682	-78.59076	141.49516	-882.63544	296.10397	144.56857	
4	0.060	-674.22302	102.63268	1855.64465	-685.33691	-71.72858	1557.22583	-698.16986	283.87726	1544.93616	-597.75031	102.01831	1436.09155	-602.04510	-11.72563	1047.63232	-585.64459	212.11613	1066.38513	-797.83282	93.87936	1060.12329	-661.36829	-71.31499	868.04401	-597.37775	-9.34892	800.29321	-708.88666	-53.93714	716.95435	-713.42151	-32.10704	617.47101	-704.15381	76.87975	574.24664	-727.85327	-28.61832	565.65155	-678.80652	15.43819	520.09894	-772.38306	-39.69109	487.09012	-766.96893	-7.64412	206.21046	-663.50360	-67.84753	162.84387	-622.26129	-78.78117	158.74635	-560.34100	-41.13132	163.27676	-603.19733	19.58034	166.52000	-718.98004	76.72266	216.99336	-675.91626	55.30441	157.31435	-796.08905	52.50469	174.11479	-643.38104	275.23587	876.02631	-590.00989	208.43599	813.67877	-689.90204	271.08783	748.95129	-726.62463	248.51805	645.60126	-696.98993	139.94449	573.49072	-732.34668	243.88829	577.39124	-680.03827	202.43332	532.49512	-774.09192	254.97899	503.30414	-771.51910	223.59894	205.01053	-665.99371	298.55362	160.82693	-628.35583	306.12280	161.64468	-560.73737	261.17422	165.60435	-594.74347	222.03946	173.56619	-712.72888	152.23355	216.50296	-675.72620	172.02144	157.03317	-797.15833	173.47124	183.01756	-528.48969	304.38391	146.77440	-517.99872	-72.40285	142.93123	-876.06311	-78.58797	141.51015	-882.62939	296.10947	144.59520	
5	0.080	-673.65729	102.69576	1855.63574	-685.19659	-71.64053	1557.27734	-698.05908	283.94287	1544.95337	-597.61798	102.09428	1436.11926	-602.13672	-11.61433	1047.70959	-585.83130	212.20366	1066.34949	-797.93860	93.96872	1060.13489	-661.45117	-71.20007	868.03210	-597.40784	-9.27051	800.29480	-708.89563	-53.93982	716.99243	-713.42261	-32.04448	617.48413	-704.15967	76.92818	574.21143	-727.87292	-28.55746	565.64166	-678.77594	15.47070	520.13855	-772.34528	-39.64431	487.09293	-766.95490	-7.62335	206.18602	-663.53888	-67.83746	162.86002	-622.27374	-78.76345	158.74187	-560.32611	-41.14223	163.29199	-603.18494	19.58112	166.51482	-718.96954	76.72920	216.98293	-675.93933	55.29315	157.29848	-796.08459	52.49131	174.10524	-643.42188	275.30276	876.01764	-590.06256	208.49663	813.73730	-689.95264	271.16879	748.95374	-726.59796	248.55241	645.59442	-696.86267	139.92876	573.59314	-732.22803	244.00356	577.35248	-679.99738	202.45798	532.48785	-774.00415	255.04849	503.32199	-771.50446	223.58792	204.99535	-665.95789	298.50702	160.82230	-628.37292	306.10281	161.62459	-560.73584	261.17825	165.57213	-594.74127	222.02849	173.58156	-712.72711	152.22643	216.51088	-675.72815	172.01422	157.02292	-797.16772	173.48230	182.99428	-528.48706	304.38672	146.75172	-517.99164	-72.37959	142.89330	-876.06458	-78.58479	141.53639	-882.62683	296.11728	144.61691	
6	0.100	-672.96497	102.75502	1855.62939	-685.03082	-71.56921	1557.34998	-697.92688	284.01541	1544.99744	-597.48810	102.17927	1436.13159	-602.24280	-11.49294	1047.79321	-586.09314	212.30647	1066.33911	-798.09192	94.06799	1060.15210	-661.58057	-71.04676	868.01813	-597.45142	-9.19567	800.30396	-708.91821	-53.95135	717.04437	-713.44922	-31.96136	617.48755	-704.15869	76.97138	574.20636	-727.88202	-28.50981	565.65619	-678.73566	15.51139	520.19092	-772.32416	-39.58068	487.07706	-766.95392	-7.60904	206.18549	-663.56567	-67.84756	162.89095	-622.28278	-78.75209	158.73283	-560.31372	-41.12467	163.30492	-603.16827	19.59490	166.49751	-718.97229	76.73793	216.97676	-675.94305	55.27811	157.29480	-796.08380	52.47362	174.09586	-643.48303	275.37796	876.03308	-590.11475	208.56464	813.85608	-690.02264	271.24579	748.95636	-726.53931	248.58212	645.57007	-696.62067	139.87820	573.67676	-732.08087	244.10941	577.34039	-679.90521	202.45277	532.47760	-773.84021	255.11279	503.34906	-771.48761	223.58167	204.97275	-665.92297	298.48581	160.81812	-628.39734	306.07974	161.62056	-560.73767	261.18796	165.53944	-594.72913	222.01067	173.59259	-712.71967	152.22659	216.50536	-675.71851	171.97859	156.99222	-797.17651	173.49338	182.96507	-528.47437	304.38580	146.73386	-517.98352	-72.36224	142.86272	-876.06116	-78.58079	141.56520	-882.62573	296.12152	144.62862	
7	0.120	-672.11792	102.80186	1855.63257	-684.83350	-71.51254	1557.42676	-697.75391	284.11728	1545.07068	-597.36719	102.26628	1436.12085	-602.38617	-11.36525	1047.87793	-586.42139	212.43076	1066.38062	-798.31110	94.16248	1060.16858	-661.76941	-70.85716	868.00513	-597.51013	-9.14197	800.32819	-708.96381	-53.94305	717.10321	-713.49182	-31.87228	617.50946	-704.15436	77.01493	574.22968	-727.86615	-28.47264	565.71460	-678.68994	15.55875	520.24347	-772.31500	-39.49147	487.04544	-766.96088	-7.59878	206.19702	-663.56659	-67.85372	162.92757	-622.28760	-78.75414	158.72023	-560.31055	-41.09636	163.31189	-603.14471	19.61902	166.47427	-718.97974	76.74440	216.97487	-675.92804	55.26305	157.29893	-796.08600	52.45777	174.09085	-643.57684	275.46960	876.08978	-590.16272	208.65695	814.02692	-690.09802	271.31235	748.96277	-726.43140	248.59378	645.52655	-696.23566	139.83360	573.73859	-731.89307	244.17123	577.35870	-679.72565	202.41975	532.46307	-773.58795	255.14337	503.37582	-771.46344	223.58710	204.94717	-665.89917	298.48071	160.82227	-628.42316	306.05292	161.63219	-560.73767	261.19461	165.51242	-594.71118	221.98799	173.59903	-712.69324	152.23201	216.48289	-675.70349	171.92053	156.94534	-797.17871	173.50316	182.94012	-528.45203	304.37558	146.73003	-517.97137	-72.34851	142.84517	-876.05316	-78.57665	141.58595	-882.62494	296.11935	144.62825	
